<svg xmlns="http://www.w3.org/2000/svg" viewBox="0 0 240 360" width="240" height="360">
  <defs>
    <linearGradient id="giftGradient3" x1="0%" y1="0%" x2="100%" y2="100%">
      <stop offset="0%" style="stop-color:#DDA0DD;stop-opacity:1" />
      <stop offset="100%" style="stop-color:#B4A7F5;stop-opacity:1" />
    </linearGradient>
  </defs>
  
  <!-- Card background -->
  <rect width="240" height="360" fill="#FFFFFF" rx="16"/>
  
  <!-- Decorative border -->
  <rect x="8" y="8" width="224" height="344" fill="none" stroke="#B4A7F5" stroke-width="3" rx="12"/>
  
  <!-- Central gift placeholder -->
  <circle cx="120" cy="140" r="65" fill="url(#giftGradient3)" opacity="0.8"/>
  <rect x="90" y="110" width="60" height="60" fill="#9370DB" rx="6"/>
  <path d="M120 95 L120 110 M90 102.5 L150 102.5" stroke="#FFFFFF" stroke-width="4" fill="none"/>
  
  <!-- Decorative sparkles around gift -->
  <circle cx="70" cy="100" r="3" fill="#FFF1A8"/>
  <circle cx="170" cy="105" r="2" fill="#C1F7C2"/>
  <circle cx="75" cy="180" r="2" fill="#FF9AA2"/>
  <circle cx="165" cy="175" r="3" fill="#A0E7E5"/>
  
  <!-- Gift label area -->
  <rect x="25" y="220" width="190" height="90" fill="#FFF8DC" stroke="#B4A7F5" stroke-width="2" rx="8" opacity="0.9"/>
  
  <!-- Gift Title -->
  <text x="120" y="240" text-anchor="middle" font-family="Poppins, sans-serif" font-size="14" font-weight="bold" fill="#9370DB">Eforea - Hilton Pilar</text>
  
  <!-- Gift Description -->
  <text x="120" y="258" text-anchor="middle" font-family="Poppins, sans-serif" font-size="9" fill="#4A4A6A">Experiencia de spa de lujo</text>
  <text x="120" y="270" text-anchor="middle" font-family="Poppins, sans-serif" font-size="9" fill="#4A4A6A">para 2 personas</text>
  <text x="120" y="282" text-anchor="middle" font-family="Poppins, sans-serif" font-size="9" fill="#4A4A6A">Sauna, hidromasajes, piscina</text>
  <text x="120" y="294" text-anchor="middle" font-family="Poppins, sans-serif" font-size="9" fill="#4A4A6A">Tumbas térmicas y duchas</text>
  
  <!-- Card suit symbol (Swords - Spanish deck) -->
  <path d="M35 20 L35 45 M30 40 L40 40 M32 42 L38 42" stroke="#B4A7F5" stroke-width="3" fill="none"/>
  <path d="M205 340 L205 315 M200 320 L210 320 M202 318 L208 318" stroke="#B4A7F5" stroke-width="3" fill="none"/>
  
  <!-- Card number -->
  <text x="35" y="60" text-anchor="middle" font-family="serif" font-size="16" font-weight="bold" fill="#9370DB">3</text>
  <text x="205" y="305" text-anchor="middle" font-family="serif" font-size="16" font-weight="bold" fill="#9370DB" transform="rotate(180 205 305)">3</text>
  
  <!-- Decorative elements -->
  <path d="M 30 70 Q 35 65 40 70" stroke="#B4A7F5" stroke-width="2" fill="none"/>
  <path d="M 200 290 Q 205 285 210 290" stroke="#B4A7F5" stroke-width="2" fill="none"/>
</svg> 