<svg xmlns="http://www.w3.org/2000/svg" viewBox="0 0 240 360" width="240" height="360">
  <defs>
    <linearGradient id="cardGradient" x1="0%" y1="0%" x2="100%" y2="100%">
      <stop offset="0%" style="stop-color:#B4A7F5;stop-opacity:1" />
      <stop offset="50%" style="stop-color:#A0E7E5;stop-opacity:1" />
      <stop offset="100%" style="stop-color:#FF9AA2;stop-opacity:1" />
    </linearGradient>
    <pattern id="cardPattern" x="0" y="0" width="40" height="40" patternUnits="userSpaceOnUse">
      <circle cx="20" cy="20" r="4" fill="#FFF1A8" opacity="0.3"/>
    </pattern>
  </defs>
  
  <!-- Card background -->
  <rect width="240" height="360" fill="url(#cardGradient)" rx="16"/>
  
  <!-- Decorative pattern overlay -->
  <rect width="240" height="360" fill="url(#cardPattern)" rx="16"/>
  
  <!-- Decorative border -->
  <rect x="8" y="8" width="224" height="344" fill="none" stroke="#FFFFFF" stroke-width="2" rx="12" opacity="0.6"/>
  
  <!-- Central ornate design -->
  <circle cx="120" cy="180" r="70" fill="none" stroke="#FFFFFF" stroke-width="3" opacity="0.8"/>
  <circle cx="120" cy="180" r="50" fill="none" stroke="#FFFFFF" stroke-width="2" opacity="0.6"/>
  <circle cx="120" cy="180" r="30" fill="none" stroke="#FFFFFF" stroke-width="2" opacity="0.4"/>
  
  <!-- Corner decorations -->
  <circle cx="50" cy="50" r="12" fill="#FFFFFF" opacity="0.7"/>
  <circle cx="190" cy="50" r="12" fill="#FFFFFF" opacity="0.7"/>
  <circle cx="50" cy="310" r="12" fill="#FFFFFF" opacity="0.7"/>
  <circle cx="190" cy="310" r="12" fill="#FFFFFF" opacity="0.7"/>
  
  <!-- Spanish card text -->
  <text x="120" y="130" text-anchor="middle" font-family="serif" font-size="20" font-weight="bold" fill="#FFFFFF" opacity="0.9">BARAJA</text>
  <text x="120" y="230" text-anchor="middle" font-family="serif" font-size="20" font-weight="bold" fill="#FFFFFF" opacity="0.9">ESPAÑOLA</text>
  
  <!-- Decorative flourishes -->
  <path d="M 120 100 Q 110 90 100 100 Q 110 110 120 100" fill="#FFFFFF" opacity="0.5"/>
  <path d="M 120 260 Q 130 250 140 260 Q 130 270 120 260" fill="#FFFFFF" opacity="0.5"/>
</svg> 